<svg xmlns="http://www.w3.org/2000/svg" viewBox="0 0 216 260" width="216" height="260" role="img" aria-label="M5Stack AtomS3 Lite (ESP32-S3)">
  <defs>
    <linearGradient id="g" x1="0" y1="0" x2="0" y2="1">
      <stop offset="0" stop-color="#161c28"/>
      <stop offset="1" stop-color="#101010"/>
    </linearGradient>
  </defs>
  <rect width="216" height="260" rx="12" fill="url(#g)"/>
  <rect x="28" y="36" width="160" height="136" rx="10" fill="#000" opacity=".22"/>
  <rect x="66" y="66" width="84" height="76" rx="8" stroke="#5a6a8a" stroke-width="4" fill="none" opacity=".7"/><circle cx="80" cy="80" r="5" fill="#5a6a8a" opacity=".8"/><rect x="56" y="56" width="8" height="10" fill="#5a6a8a" opacity=".55"/><rect x="56" y="142" width="8" height="10" fill="#5a6a8a" opacity=".55"/><rect x="74" y="56" width="8" height="10" fill="#5a6a8a" opacity=".55"/><rect x="74" y="142" width="8" height="10" fill="#5a6a8a" opacity=".55"/><rect x="92" y="56" width="8" height="10" fill="#5a6a8a" opacity=".55"/><rect x="92" y="142" width="8" height="10" fill="#5a6a8a" opacity=".55"/><rect x="110" y="56" width="8" height="10" fill="#5a6a8a" opacity=".55"/><rect x="110" y="142" width="8" height="10" fill="#5a6a8a" opacity=".55"/><rect x="128" y="56" width="8" height="10" fill="#5a6a8a" opacity=".55"/><rect x="128" y="142" width="8" height="10" fill="#5a6a8a" opacity=".55"/><rect x="146" y="56" width="8" height="10" fill="#5a6a8a" opacity=".55"/><rect x="146" y="142" width="8" height="10" fill="#5a6a8a" opacity=".55"/>
  <rect x="12" y="12" width="52" height="8" rx="4" fill="#3f7fa4" opacity=".9"/>
  <text x="108" y="182" text-anchor="middle" font-size="14" fill="#e8e8e8" font-family="ui-sans-serif,system-ui,sans-serif">M5Stack AtomS3 Lite</text><text x="108" y="201" text-anchor="middle" font-size="14" fill="#e8e8e8" font-family="ui-sans-serif,system-ui,sans-serif">(ESP32-S3)</text><text x="108" y="224" text-anchor="middle" font-size="11" fill="#9a9a9a" font-family="ui-sans-serif,system-ui,sans-serif">M5Stack</text>
</svg>
