<svg xmlns="http://www.w3.org/2000/svg" viewBox="0 0 216 260" width="216" height="260" role="img" aria-label="MLX90640 32x24 thermal camera array">
  <defs>
    <linearGradient id="g" x1="0" y1="0" x2="0" y2="1">
      <stop offset="0" stop-color="#2e1410"/>
      <stop offset="1" stop-color="#101010"/>
    </linearGradient>
  </defs>
  <rect width="216" height="260" rx="12" fill="url(#g)"/>
  <rect x="28" y="36" width="160" height="136" rx="10" fill="#000" opacity=".22"/>
  <rect x="62" y="62" width="13" height="13" rx="2" fill="#b5563f" opacity="0.18"/><rect x="78" y="62" width="13" height="13" rx="2" fill="#b5563f" opacity="0.55"/><rect x="94" y="62" width="13" height="13" rx="2" fill="#b5563f" opacity="0.32"/><rect x="110" y="62" width="13" height="13" rx="2" fill="#b5563f" opacity="0.69"/><rect x="126" y="62" width="13" height="13" rx="2" fill="#b5563f" opacity="0.46"/><rect x="142" y="62" width="13" height="13" rx="2" fill="#b5563f" opacity="0.23"/><rect x="62" y="78" width="13" height="13" rx="2" fill="#b5563f" opacity="0.60"/><rect x="78" y="78" width="13" height="13" rx="2" fill="#b5563f" opacity="0.37"/><rect x="94" y="78" width="13" height="13" rx="2" fill="#b5563f" opacity="0.74"/><rect x="110" y="78" width="13" height="13" rx="2" fill="#b5563f" opacity="0.51"/><rect x="126" y="78" width="13" height="13" rx="2" fill="#b5563f" opacity="0.28"/><rect x="142" y="78" width="13" height="13" rx="2" fill="#b5563f" opacity="0.65"/><rect x="62" y="94" width="13" height="13" rx="2" fill="#b5563f" opacity="0.42"/><rect x="78" y="94" width="13" height="13" rx="2" fill="#b5563f" opacity="0.19"/><rect x="94" y="94" width="13" height="13" rx="2" fill="#b5563f" opacity="0.56"/><rect x="110" y="94" width="13" height="13" rx="2" fill="#b5563f" opacity="0.33"/><rect x="126" y="94" width="13" height="13" rx="2" fill="#b5563f" opacity="0.70"/><rect x="142" y="94" width="13" height="13" rx="2" fill="#b5563f" opacity="0.47"/><rect x="62" y="110" width="13" height="13" rx="2" fill="#b5563f" opacity="0.24"/><rect x="78" y="110" width="13" height="13" rx="2" fill="#b5563f" opacity="0.61"/><rect x="94" y="110" width="13" height="13" rx="2" fill="#b5563f" opacity="0.38"/><rect x="110" y="110" width="13" height="13" rx="2" fill="#b5563f" opacity="0.75"/><rect x="126" y="110" width="13" height="13" rx="2" fill="#b5563f" opacity="0.52"/><rect x="142" y="110" width="13" height="13" rx="2" fill="#b5563f" opacity="0.29"/><rect x="62" y="126" width="13" height="13" rx="2" fill="#b5563f" opacity="0.66"/><rect x="78" y="126" width="13" height="13" rx="2" fill="#b5563f" opacity="0.43"/><rect x="94" y="126" width="13" height="13" rx="2" fill="#b5563f" opacity="0.20"/><rect x="110" y="126" width="13" height="13" rx="2" fill="#b5563f" opacity="0.57"/><rect x="126" y="126" width="13" height="13" rx="2" fill="#b5563f" opacity="0.34"/><rect x="142" y="126" width="13" height="13" rx="2" fill="#b5563f" opacity="0.71"/><rect x="62" y="142" width="13" height="13" rx="2" fill="#b5563f" opacity="0.48"/><rect x="78" y="142" width="13" height="13" rx="2" fill="#b5563f" opacity="0.25"/><rect x="94" y="142" width="13" height="13" rx="2" fill="#b5563f" opacity="0.62"/><rect x="110" y="142" width="13" height="13" rx="2" fill="#b5563f" opacity="0.39"/><rect x="126" y="142" width="13" height="13" rx="2" fill="#b5563f" opacity="0.76"/><rect x="142" y="142" width="13" height="13" rx="2" fill="#b5563f" opacity="0.53"/>
  <rect x="12" y="12" width="52" height="8" rx="4" fill="#3fa46a" opacity=".9"/>
  <text x="108" y="182" text-anchor="middle" font-size="14" fill="#e8e8e8" font-family="ui-sans-serif,system-ui,sans-serif">MLX90640 32x24 thermal</text><text x="108" y="201" text-anchor="middle" font-size="14" fill="#e8e8e8" font-family="ui-sans-serif,system-ui,sans-serif">camera array</text><text x="108" y="224" text-anchor="middle" font-size="11" fill="#9a9a9a" font-family="ui-sans-serif,system-ui,sans-serif">Melexis</text>
</svg>
